<svg version="1.2" baseProfile="tiny-ps" xmlns="http://www.w3.org/2000/svg" viewBox="0 0 1053 702" width="3000" height="2000">
	<title>logo exotec vectoriel-svg</title>
	<style>
		tspan { white-space:pre }
		.shp0 { fill: #20868f } 
		.shp1 { display: none;fill: #666666 } 
	</style>
	<g id="layer1">
		<path id="text2985" class="shp0" d="M445.76 250.22C416.24 250.22 392.77 259.6 375.57 278.26C375.13 278.73 374.9 279.3 374.48 279.78L401.86 297.38C412.88 285 426.82 278.69 444.03 278.69C462.41 278.69 477.03 284.92 487.49 297.6C497.95 310.28 503.14 328.23 503.14 351.5C503.14 355.11 502.98 358.57 502.71 361.93L533.35 381.49C535.76 371.44 536.83 360.38 536.83 348.46C536.83 319.21 528.54 295.5 511.83 277.39C495.13 259.28 473.11 250.22 445.76 250.22L445.76 250.22ZM959.32 250.22C930.07 250.22 905.88 259.93 886.73 279.13C867.58 298.33 858.04 323.39 858.04 354.54C858.04 383.52 866.45 406.9 883.47 424.74C900.5 442.58 923.24 451.47 951.5 451.47C973.32 451.47 991.59 447.78 1006.26 440.17L1006.26 410.18C992.77 418.87 976.83 423.22 958.45 423.22C938.53 423.22 922.43 417.03 910.2 404.31C897.98 391.59 891.73 374.48 891.73 353.02C891.73 330.47 898.42 312.4 911.51 298.91C924.59 285.41 941.7 278.69 962.8 278.69C978.64 278.69 993.13 282.64 1006.26 290.43L1006.26 258.26C993.86 252.92 978.16 250.22 959.32 250.22L959.32 250.22ZM46.09 253.48L46.09 448.21L155.41 448.21L155.41 421.05L78.47 421.05L78.47 363.45L145.41 363.45L145.41 336.07L78.47 336.07L78.47 280.87L151.06 280.87L151.06 253.48L46.09 253.48L46.09 253.48ZM173.45 253.48L232.13 350.41L168.45 448.21L207.35 448.21L248.43 376.93C250.33 372.76 251.74 369.57 252.56 367.58L253.21 367.58C254.66 371.57 255.94 374.75 257.12 376.93L297.11 448.21L335.79 448.21L274.51 350.2L334.49 253.48L298.2 253.48L261.47 318.68C259.57 322.03 257.36 326.67 254.73 332.37L254.3 332.37C252.48 328.03 250.47 323.68 248.21 319.33L213 253.48L173.45 253.48L173.45 253.48ZM553.56 253.48L553.56 280.87L609.2 280.87L609.2 448.21L641.58 448.21L641.58 280.87L697.65 280.87L697.65 253.48L553.56 253.48L553.56 253.48ZM726.34 253.48L726.34 448.21L835.66 448.21L835.66 421.05L758.72 421.05L758.72 363.45L825.66 363.45L825.66 336.07L758.72 336.07L758.72 280.87L831.31 280.87L831.31 253.48L726.34 253.48ZM357.31 308.69C352.42 321.79 349.92 336.53 349.92 353.24C349.92 382.4 358.24 406.1 375.13 424.31C392.02 442.51 414.65 451.47 442.72 451.47C471.34 451.47 494.07 442.34 511.18 423.87C514.37 420.43 517.28 416.69 519.87 412.79L493.14 395.62C491.32 398.8 489.16 401.82 486.84 404.53C476.06 417.12 461.38 423.22 442.72 423.22C425.15 423.22 410.99 416.66 400.12 403.44C389.26 390.22 383.83 372.92 383.83 351.28C383.83 342.7 384.69 334.64 386.43 327.38L357.31 308.69L357.31 308.69Z" />
		<path id="text2993" fill-rule="evenodd" class="shp1" d="M72.81 439.66L72.81 446.09C69.94 444.1 66.26 443.09 61.75 443.09C60.5 443.09 59.25 443.21 58 443.47C56.75 443.73 55.66 444.16 54.69 444.75C53.71 445.34 52.92 446.1 52.31 447.03C51.7 447.96 51.37 449.1 51.38 450.44C51.37 451.68 51.6 452.75 52.06 453.66C52.53 454.56 53.22 455.38 54.13 456.13C55.03 456.87 56.14 457.61 57.44 458.31C58.74 459.01 60.24 459.79 61.94 460.63C63.68 461.49 65.34 462.39 66.91 463.34C68.47 464.29 69.82 465.35 71 466.5C72.18 467.65 73.12 468.91 73.81 470.31C74.5 471.72 74.84 473.35 74.84 475.16C74.84 477.56 74.38 479.59 73.44 481.25C72.5 482.91 71.22 484.27 69.63 485.31C68.03 486.35 66.21 487.1 64.13 487.56C62.04 488.03 59.84 488.25 57.53 488.25C56.76 488.25 55.82 488.19 54.69 488.06C53.56 487.94 52.4 487.77 51.22 487.53C50.04 487.29 48.93 487.01 47.88 486.66C46.82 486.31 45.98 485.9 45.34 485.47L45.34 478.75C46.11 479.43 47.02 480.05 48.09 480.59C49.17 481.14 50.31 481.6 51.5 481.97C52.69 482.34 53.89 482.61 55.09 482.81C56.29 483.02 57.39 483.13 58.41 483.13C61.92 483.13 64.55 482.49 66.28 481.19C68.01 479.89 68.87 478.01 68.88 475.56C68.87 474.25 68.58 473.1 68 472.13C67.42 471.15 66.64 470.27 65.63 469.47C64.61 468.67 63.39 467.89 62 467.16C60.61 466.42 59.11 465.63 57.5 464.81C55.8 463.95 54.22 463.1 52.75 462.22C51.28 461.34 49.99 460.35 48.91 459.28C47.82 458.22 46.97 457 46.34 455.66C45.72 454.31 45.41 452.75 45.41 450.94C45.41 448.72 45.9 446.8 46.88 445.16C47.85 443.51 49.1 442.16 50.69 441.09C52.27 440.03 54.1 439.24 56.13 438.72C58.15 438.2 60.21 437.94 62.31 437.94C67.11 437.94 70.62 438.5 72.81 439.66ZM196.56 444.72C200.67 449.25 202.72 455.16 202.72 462.47C202.72 470.41 200.62 476.69 196.41 481.31C192.2 485.93 186.56 488.25 179.5 488.25C172.6 488.25 167.06 485.99 162.91 481.44C158.75 476.89 156.69 470.95 156.69 463.66C156.69 455.82 158.8 449.6 163.03 444.94C167.26 440.27 173.02 437.94 180.31 437.94C187.04 437.94 192.45 440.19 196.56 444.72ZM761.03 444.72C765.14 449.25 767.19 455.16 767.19 462.47C767.19 470.41 765.09 476.69 760.88 481.31C756.66 485.93 751.03 488.25 743.97 488.25C737.06 488.25 731.53 485.99 727.38 481.44C723.22 476.89 721.13 470.95 721.13 463.66C721.13 455.82 723.27 449.6 727.5 444.94C731.73 440.27 737.49 437.94 744.78 437.94C751.5 437.94 756.92 440.19 761.03 444.72ZM1004.63 439.66L1004.63 446.09C1001.75 444.1 998.04 443.09 993.53 443.09C992.29 443.09 991.06 443.21 989.81 443.47C988.57 443.73 987.44 444.16 986.47 444.75C985.5 445.34 984.7 446.1 984.09 447.03C983.48 447.96 983.19 449.1 983.19 450.44C983.19 451.68 983.41 452.75 983.88 453.66C984.34 454.56 985.03 455.38 985.94 456.13C986.84 456.87 987.95 457.61 989.25 458.31C990.55 459.01 992.05 459.79 993.75 460.63C995.49 461.49 997.16 462.39 998.72 463.34C1000.28 464.29 1001.64 465.35 1002.81 466.5C1003.99 467.65 1004.93 468.91 1005.63 470.31C1006.32 471.72 1006.66 473.35 1006.66 475.16C1006.66 477.56 1006.19 479.59 1005.25 481.25C1004.31 482.91 1003.03 484.27 1001.44 485.31C999.84 486.35 998.02 487.1 995.94 487.56C993.85 488.03 991.65 488.25 989.34 488.25C988.57 488.25 987.6 488.19 986.47 488.06C985.34 487.94 984.21 487.77 983.03 487.53C981.85 487.29 980.74 487.01 979.69 486.66C978.63 486.31 977.79 485.9 977.16 485.47L977.16 478.75C977.93 479.43 978.83 480.05 979.91 480.59C980.98 481.14 982.12 481.6 983.31 481.97C984.5 482.34 985.68 482.61 986.88 482.81C988.07 483.02 989.2 483.13 990.22 483.13C993.73 483.13 996.36 482.49 998.09 481.19C999.83 479.89 1000.69 478.01 1000.69 475.56C1000.69 474.25 1000.39 473.1 999.81 472.13C999.24 471.15 998.42 470.27 997.41 469.47C996.39 468.67 995.2 467.89 993.81 467.16C992.42 466.42 990.92 465.63 989.31 464.81C987.61 463.95 986 463.1 984.53 462.22C983.06 461.34 981.81 460.35 980.72 459.28C979.63 458.22 978.78 457 978.16 455.66C977.53 454.31 977.22 452.75 977.22 450.94C977.22 448.72 977.68 446.8 978.66 445.16C979.63 443.51 980.92 442.16 982.5 441.09C984.08 440.03 985.91 439.24 987.94 438.72C989.96 438.2 992.02 437.94 994.13 437.94C998.92 437.94 1002.43 438.5 1004.63 439.66ZM293.34 438.75L293.34 482.28L312.91 482.28L312.91 487.44L287.63 487.44L287.63 438.75L293.34 438.75ZM400.78 438.75L400.78 468.16C400.78 478.14 404.98 483.13 413.41 483.13C421.53 483.13 425.59 478.3 425.59 468.66L425.59 438.75L431.31 438.75L431.31 467.75C431.31 481.42 425.12 488.25 412.78 488.25C400.96 488.25 395.06 481.68 395.06 468.53L395.06 438.75L400.78 438.75ZM547.63 438.75L547.63 443.91L533.56 443.91L533.56 487.44L527.84 487.44L527.84 443.91L513.81 443.91L513.81 438.75L547.63 438.75ZM641 438.75L641 443.63L636.25 443.63L636.25 482.56L641 482.56L641 487.44L625.78 487.44L625.78 482.56L630.53 482.56L630.53 443.63L625.78 443.63L625.78 438.75L641 438.75ZM859.47 438.75L883.88 476.94C884.89 478.52 885.55 479.63 885.84 480.22L885.97 480.22C885.74 478.82 885.62 476.4 885.63 473.03L885.63 438.75L891.34 438.75L891.34 487.44L884.34 487.44L859.28 448.63C858.65 447.65 858.13 446.63 857.72 445.56L857.5 445.56C857.68 446.6 857.78 448.83 857.78 452.25L857.78 487.44L852.06 487.44L852.06 438.75L859.47 438.75ZM167.44 448.63C164.25 452.32 162.66 457.16 162.66 463.16C162.66 469.16 164.23 474 167.34 477.66C170.46 481.31 174.5 483.13 179.5 483.13C184.84 483.13 189.05 481.39 192.13 477.91C195.2 474.42 196.75 469.52 196.75 463.25C196.75 456.82 195.27 451.85 192.28 448.34C189.29 444.83 185.16 443.09 179.91 443.09C174.79 443.09 170.63 444.93 167.44 448.63ZM731.91 448.63C728.71 452.32 727.12 457.16 727.13 463.16C727.12 469.16 728.67 474 731.78 477.66C734.89 481.31 738.97 483.13 743.97 483.13C749.31 483.13 753.51 481.39 756.59 477.91C759.67 474.42 761.22 469.52 761.22 463.25C761.22 456.82 759.71 451.85 756.72 448.34C753.73 444.83 749.63 443.09 744.38 443.09C739.26 443.09 735.1 444.93 731.91 448.63Z" />
	</g>
</svg>